<svg width="800" height="800" viewBox="0 0 800 800" fill="none" xmlns="http://www.w3.org/2000/svg">
  <defs>
    <radialGradient id="g" cx="0" cy="0" r="1" gradientUnits="userSpaceOnUse" gradientTransform="translate(360 320) rotate(45) scale(520)">
      <stop stop-color="#0B4BFF" stop-opacity="0.4" />
      <stop offset="0.55" stop-color="#0033CC" stop-opacity="0.24" />
      <stop offset="1" stop-color="#001B66" stop-opacity="0.1" />
    </radialGradient>
    <linearGradient id="s" x1="140" y1="120" x2="660" y2="680" gradientUnits="userSpaceOnUse">
      <stop stop-color="#0B4BFF" stop-opacity="0.55" />
      <stop offset="1" stop-color="#0B4BFF" stop-opacity="0.15" />
    </linearGradient>
    <filter id="blur" x="-10%" y="-10%" width="120%" height="120%">
      <feGaussianBlur stdDeviation="0.6" />
    </filter>
  </defs>

  <circle cx="400" cy="400" r="300" fill="url(#g)" />
  <circle cx="400" cy="400" r="300" stroke="url(#s)" stroke-width="3" opacity="0.55" />

  <g filter="url(#blur)" stroke="url(#s)" stroke-width="2" opacity="0.28">
    <ellipse cx="400" cy="400" rx="260" ry="300" />
    <ellipse cx="400" cy="400" rx="180" ry="300" />
    <ellipse cx="400" cy="400" rx="100" ry="300" />
  </g>

  <g filter="url(#blur)" stroke="url(#s)" stroke-width="2" opacity="0.24">
    <ellipse cx="400" cy="400" rx="300" ry="240" />
    <ellipse cx="400" cy="400" rx="300" ry="180" />
    <ellipse cx="400" cy="400" rx="300" ry="120" />
  </g>

  <g filter="url(#blur)" opacity="0.18" fill="#0B4BFF">
    <path d="M282 327c34-22 70-30 105-22 23 6 45 20 66 41 18 18 40 30 66 36 29 7 61 5 93-8-18 48-48 84-89 106-36 19-78 26-122 20-47-6-86-27-116-62-22-26-36-64-3-111Z" />
    <path d="M466 523c36-5 70 0 101 16 22 11 39 26 52 45-28 22-60 35-96 39-46 5-92-4-134-26 21-38 48-62 77-74Z" />
  </g>
</svg>
