<svg width="1024" height="1024" viewBox="0 0 1024 1024" fill="none" xmlns="http://www.w3.org/2000/svg">
  <defs>
    <radialGradient id="ocean" cx="0" cy="0" r="1" gradientUnits="userSpaceOnUse" gradientTransform="translate(420 360) rotate(55) scale(720)">
      <stop stop-color="#2F7BFF" stop-opacity="1" />
      <stop offset="0.55" stop-color="#0B47D9" stop-opacity="1" />
      <stop offset="1" stop-color="#062870" stop-opacity="1" />
    </radialGradient>
    <radialGradient id="shine" cx="0" cy="0" r="1" gradientUnits="userSpaceOnUse" gradientTransform="translate(360 320) rotate(55) scale(520)">
      <stop stop-color="#FFFFFF" stop-opacity="0.7" />
      <stop offset="0.35" stop-color="#FFFFFF" stop-opacity="0.18" />
      <stop offset="1" stop-color="#FFFFFF" stop-opacity="0" />
    </radialGradient>
    <radialGradient id="shadow" cx="0" cy="0" r="1" gradientUnits="userSpaceOnUse" gradientTransform="translate(620 700) rotate(-35) scale(620)">
      <stop stop-color="#000000" stop-opacity="0" />
      <stop offset="0.7" stop-color="#000000" stop-opacity="0.2" />
      <stop offset="1" stop-color="#000000" stop-opacity="0.5" />
    </radialGradient>
    <linearGradient id="atmos" x1="220" y1="220" x2="860" y2="860" gradientUnits="userSpaceOnUse">
      <stop stop-color="#FFFFFF" stop-opacity="0.55" />
      <stop offset="1" stop-color="#FFFFFF" stop-opacity="0.06" />
    </linearGradient>
    <filter id="soft" x="-10%" y="-10%" width="120%" height="120%">
      <feGaussianBlur stdDeviation="0.9" />
    </filter>
    <filter id="drop" x="-20%" y="-20%" width="140%" height="140%">
      <feDropShadow dx="0" dy="18" stdDeviation="26" flood-color="#001B55" flood-opacity="0.35" />
    </filter>
  </defs>

  <g filter="url(#drop)">
    <circle cx="512" cy="512" r="360" fill="url(#ocean)" />
    <circle cx="512" cy="512" r="360" fill="url(#shadow)" opacity="0.55" />
    <circle cx="512" cy="512" r="360" fill="url(#shine)" />
    <circle cx="512" cy="512" r="360" stroke="url(#atmos)" stroke-width="6" opacity="0.7" />
  </g>

  <g opacity="0.55" filter="url(#soft)">
    <path
      fill="#BFE6C7"
      d="M342 428c24-38 70-64 122-70 35-4 66 2 90 18 18 12 28 30 30 52 2 26-10 46-34 60-29 17-61 17-95 10-26-6-50-17-74-32-12-7-27-15-39-10-15 6-10 28 0 48 8 16 19 30 28 46 10 19 10 36-3 50-16 18-44 24-69 12-26-13-45-37-54-64-10-30-7-75-2-120Z"
    />
    <path
      fill="#BFE6C7"
      d="M575 640c22-20 52-32 86-32 30 0 56 10 76 28 16 14 24 34 20 52-5 24-30 38-58 42-36 5-76-6-108-28-24-16-34-42-16-62Z"
    />
    <path
      fill="#BFE6C7"
      d="M640 410c18-22 46-34 78-32 26 2 48 12 60 30 10 14 10 32-2 46-16 18-46 20-72 14-18-4-36-10-52-6-14 4-20 18-12 32 10 18 34 26 50 40 18 16 20 42 0 58-22 18-60 10-86-10-28-22-42-62-34-98 6-30 14-54 70-74Z"
    />
  </g>

  <g opacity="0.18" stroke="#FFFFFF" stroke-width="2" filter="url(#soft)">
    <ellipse cx="512" cy="512" rx="320" ry="360" />
    <ellipse cx="512" cy="512" rx="220" ry="360" />
    <ellipse cx="512" cy="512" rx="120" ry="360" />
    <ellipse cx="512" cy="512" rx="360" ry="300" />
    <ellipse cx="512" cy="512" rx="360" ry="220" />
    <ellipse cx="512" cy="512" rx="360" ry="140" />
  </g>
</svg>
